<?xml version="1.0" encoding="utf-8"?>
<!-- Generator: Adobe Illustrator 21.0.2, SVG Export Plug-In . SVG Version: 6.00 Build 0)  -->
<svg version="1.1" id="Layer_1" xmlns="http://www.w3.org/2000/svg" xmlns:xlink="http://www.w3.org/1999/xlink" x="0px" y="0px"
	 width="1232.2px" height="672.6px" viewBox="0 0 1232.2 672.6" enable-background="new 0 0 1232.2 672.6" xml:space="preserve">
<g>
	<path fill="#AD7A4A" d="M474.4,295.4c-6.7-3.5-13.6-6.5-20.8-9.3c-0.1,0-0.2-0.1-0.3-0.1c-21.2-8.2-44.3-13.9-66.8-19.5
		c-31.9-7.9-64.9-16-92.6-31.2c-8.4-4.6-16.3-9.7-23.8-15.2c-0.2-0.2-0.4-0.4-0.7-0.5c-14-10.5-26.4-22.5-36.8-35.6c0,0,0,0,0,0
		c-0.2-0.3-0.4-0.6-0.6-0.8c-15.3-19.5-26.3-41.3-31.9-64c-0.6-2.4,2.7-3.6,3.9-1.4c15.5,30.8,39.6,55.2,73,74.2
		c36.8,20.9,79.7,32.7,121.3,44.2c30.5,8.4,60.1,16.6,85.4,27.9c-1.1,12-1.6,23.9-1.4,35.7C479.8,298.3,477.1,296.8,474.4,295.4z
		 M123.6,290.4c8.6,0,17.8-0.4,28.2-1.3c40.2-12.7,73.6-38.1,105.8-62.8c1.8-1.4,3.6-2.7,5.4-4.1c-12.7-9.8-24.1-21-33.8-33
		c-5.3,2.8-10.6,5.8-15.8,8.7c-35,19.5-71.3,39.7-120.2,39.7c-2.8,0-5.3,0.1-7.7,0.2c-2.1,0.1-4.1,0.1-6.1,0.1
		c-4.2,0-8.4-0.3-13.6-1.5c-13.7,3.2-27.4,4-40.5,2.4C40.3,274,71.5,290.4,123.6,290.4z M374.6,297.7c2.6-8.5,5.2-17.2,8.2-25.9
		c-15.2-3.8-30.6-7.6-45.5-12.3c-23.3,29-49.9,61.5-94.9,83.1c-14.6,12.2-30.6,24.7-48.5,33.6c-0.1,0-0.2,0.1-0.2,0.3
		c0,0.2,0.1,0.3,0.2,0.3c17.7,10.8,40.6,23.1,60.9,23.1c23.7,0,28.8,0,64-11.4C353.6,367.2,363.8,333.4,374.6,297.7z M104.4,165.3
		c9.2,2.7,16.7,4.3,27,4.3c24.2,0,47.7-7.1,70.4-14c1.6-0.5,3.2-1,4.9-1.5c-4.9-10-8.8-20.3-11.6-30.8c-0.1,0-65.1-12-93.3-22.8
		c-24.6-9.4-43.9-21.7-59-37.6c-0.1-0.1-0.1-0.1-0.3-0.1c-0.2,0.1-0.2,0.2-0.2,0.3C47.5,102.5,70.1,139.7,104.4,165.3z M499.4,398.5
		c-10.2-29.6-15.8-60.2-17-91.5c-3.4-2.1-7-4.2-10.8-6.2c-5.4-2.8-11.1-5.4-17-7.7c-1.4,8.3-2.6,16.7-3.7,24.9
		c-5.3,38.8-10.9,78.8-44.1,118.9c-4.2,9.8-9.2,20.2-16.5,29.1c-0.4,0.5-0.3,1-0.2,1.3c0.1,0.2,0.3,0.8,1,0.9
		c11.2,2.7,22.9,4,34.7,4c15.5,0,30.8-2.3,45.6-6.8C484,442,493.2,420.3,499.4,398.5z M1130.5,100.5c-19,7.3-41.1,12.7-69.6,17.2
		c-0.4,0.1-0.7,0-1.1,0c-7.2,2.6-14.7,4.5-22.6,5.6c-2.8,10.5-6.7,20.8-11.6,30.8c1.6,0.5,3.2,1,4.9,1.5c22.7,6.9,46.2,14,70.4,14
		c10.3,0,17.7-1.6,27-4.3c34.3-25.6,56.9-62.8,62.2-102.1c0-0.1,0-0.2-0.2-0.3c-0.2-0.1-0.2,0-0.3,0.1
		C1174.4,78.8,1155.1,91.1,1130.5,100.5z M955.2,191.9c-36.8,20.9-79.7,32.7-121.3,44.2c-30.5,8.4-60.1,16.6-85.5,27.9
		c1.1,12,1.6,23.9,1.4,35.7c2.5-1.5,5.2-3,7.9-4.4c6.7-3.5,13.6-6.5,20.8-9.3c0.1,0,0.2-0.1,0.3-0.1c21.2-8.2,44.3-13.9,66.8-19.5
		c31.9-7.9,64.9-16,92.6-31.2c8.4-4.6,16.3-9.7,23.8-15.2c0.2-0.2,0.4-0.4,0.7-0.5c14-10.5,26.4-22.5,36.8-35.6c0,0,0,0,0,0
		c0.2-0.3,0.4-0.6,0.6-0.8c15.3-19.5,26.3-41.3,31.9-64c0.6-2.4-2.7-3.6-3.9-1.4C1012.7,148.5,988.6,172.9,955.2,191.9z
		 M1152.8,237.9c-2,0-4-0.1-6.1-0.1c-2.4-0.1-4.9-0.2-7.7-0.2c-48.9,0-85.1-20.2-120.2-39.7c-5.2-2.9-10.6-5.9-15.8-8.7
		c-9.7,12-21.1,23.2-33.8,33c1.8,1.4,3.6,2.7,5.4,4.1c32.3,24.6,65.6,50.1,105.8,62.8c10.4,0.9,19.7,1.3,28.2,1.3
		c52,0,83.3-16.4,98.3-51.5c-13.1,1.6-26.7,0.8-40.5-2.4C1161.2,237.6,1157,237.9,1152.8,237.9z M1038.2,376.1
		c-17.9-8.9-33.9-21.4-48.5-33.6c-45-21.6-71.6-54.1-94.9-83.1c-15,4.7-30.3,8.5-45.5,12.3c3,8.7,5.6,17.4,8.2,25.9
		c10.8,35.7,21,69.5,55.8,90.9c35.2,11.4,40.3,11.4,64,11.4c20.4,0,43.3-12.3,60.9-23.1c0.1,0,0.2-0.1,0.2-0.3
		C1038.4,376.2,1038.3,376.1,1038.2,376.1z M825.3,436.6c-33.3-40.1-38.8-80.1-44.1-118.9c-1.1-8.2-2.3-16.5-3.7-24.9
		c-5.8,2.4-11.5,4.9-17,7.7c-3.8,2-7.4,4-10.8,6.2c-1.1,31.4-6.8,62-16.9,91.6c6.3,21.8,15.5,43.5,28,66.8
		c14.8,4.5,30.1,6.8,45.6,6.8c11.8,0,23.5-1.4,34.7-4c0.7-0.2,0.9-0.7,1-0.9c0.1-0.3,0.2-0.8-0.2-1.3
		C834.5,456.8,829.6,446.5,825.3,436.6z M413.7,583.6l57.2-76.5c-2.8,0.4-5.6,0.8-8.3,1.2c-1.1,0.1-2.1-0.3-2.8-1.2
		c-0.7-0.9-0.8-2-0.4-3c3.5-8.5,5.4-15,7.3-22.1L397,565.1c0.8,1.6,2.5,4.5,5.7,8.2C405.1,576.1,408.6,579.7,413.7,583.6z
		 M516.9,542.3c-0.8,0.1-1.6-0.1-2.3-0.7c-0.8-0.7-1.2-1.7-1.1-2.7c1-7.3,3.8-14.6,8.7-22.6c-2.9,0.1-5.9,0.4-9.1,0.8
		c-1,0.1-2-0.2-2.6-0.9c-0.7-0.7-0.9-1.8-0.7-2.7c0.3-1.2,0.6-2.3,0.9-3.4l-57.4,94.1c7.6,2.8,16.3,5.4,26.3,8
		c1.4-1.2,2.9-2.5,4.5-3.6L516.9,542.3z M590.6,532.6c-1.1,0.4-2.3,0.1-3.2-0.7c-1.9-1.9-4-3.8-6.3-5.6c0.2,10.6-0.3,21.3-4.4,31.2
		c-0.4,1.1-1.4,1.8-2.6,1.9c-1.2,0.1-2.2-0.5-2.8-1.5c-2.1-3.8-4.6-7.3-7.3-10.5c-0.6,6.4-1.3,13.4-1.9,20
		c-1.1,11.5-2,21.5-2.6,26.1c1.3,1.8,2.5,3.6,3.7,5.3c3.2,4.5,6.3,8.7,8.9,14c2.9,5.9,4.1,8.9,5.1,12.3c0.2,0,0.5,0,0.7,0l13.6-93.2
		C591.3,532.3,591,532.5,590.6,532.6z M668.8,598.8c1.2-1.7,2.5-3.5,3.7-5.3c-0.5-4.7-1.5-14.7-2.6-26.2c-0.6-6.6-1.3-13.6-1.9-20
		c-2.7,3.3-5.1,6.8-7.3,10.5c-0.6,1-1.7,1.6-2.8,1.5c-1.2-0.1-2.2-0.8-2.6-1.9c-4.1-9.9-4.5-20.6-4.4-31.2c-2.3,1.8-4.4,3.7-6.3,5.6
		c-0.8,0.8-2.1,1.1-3.2,0.7c-0.4-0.1-0.7-0.4-1-0.6l13.6,93.2c0.2,0,0.4,0,0.7,0c1-3.4,2.2-6.4,5.1-12.3
		C662.5,607.5,665.6,603.3,668.8,598.8z M752.6,505.5c-5.1-0.9-10.3-1.9-15.3-2.8c-5-0.9-10-1.9-15-2.7L784.5,602
		c12.3-4.9,21.8-10.1,29-14.9L752.6,505.5z M721.4,510.1c0.3,1.1,0.7,2.3,0.9,3.4c0.2,1,0,2-0.7,2.7c-0.7,0.7-1.7,1.1-2.6,0.9
		c-3.2-0.5-6.2-0.7-9.1-0.8c4.9,8,7.7,15.3,8.7,22.6c0.1,1-0.3,2.1-1.1,2.7c-0.6,0.5-1.5,0.8-2.3,0.7l32.8,66.2
		c1.6,1.2,3.1,2.4,4.5,3.7c9.9-2.5,18.6-5.2,26.3-8L721.4,510.1z M656.5,243.9c-0.6-1.7-1.4-3.3-2.2-5c-0.4-0.8-1.2-1.3-2.1-1.2
		c-0.9,0-1.7,0.6-2,1.4c-2.2,5.2-5,10-8.4,14.1c0-0.3-0.1-0.7-0.1-1c-0.1-0.9-0.8-1.7-1.7-1.9c-0.9-0.2-1.8,0.1-2.4,0.8
		c-6,8.1-13.3,14.6-21.5,19.2c-8.2-4.6-15.4-11.1-21.5-19.2c-0.6-0.7-1.5-1.1-2.4-0.8c-0.9,0.2-1.6,1-1.7,1.9c0,0.3-0.1,0.7-0.1,1
		c-3.4-4.2-6.2-8.9-8.4-14.1c-0.3-0.8-1.1-1.4-2-1.4c-0.9,0-1.7,0.5-2.1,1.2c-0.8,1.7-1.6,3.3-2.2,5c-3.6-4.9-6.6-10.2-9.1-15.8
		c9.1-2.4,17.4-7.2,24-14.1c0.6-0.6,1.1-1.2,1.6-1.8c0.2-0.2,0.3-0.4,0.5-0.6c0.4-0.4,0.7-0.8,1-1.2c0.2-0.2,0.4-0.5,0.6-0.7
		c0.3-0.4,0.6-0.8,0.9-1.2c0.2-0.2,0.4-0.5,0.5-0.7c0.3-0.4,0.6-0.8,0.9-1.3c0.2-0.2,0.3-0.5,0.5-0.7c0.3-0.5,0.6-1,0.9-1.5
		c0.1-0.2,0.2-0.3,0.3-0.5c0.4-0.7,0.8-1.4,1.1-2.1c0.1-0.2,0.2-0.3,0.3-0.5c0.3-0.5,0.5-1.1,0.8-1.6c0.1-0.3,0.2-0.5,0.3-0.8
		c0.2-0.5,0.4-0.9,0.6-1.4c0.1-0.3,0.2-0.6,0.3-0.8c0.2-0.5,0.4-0.9,0.5-1.4c0.1-0.3,0.2-0.6,0.3-0.8c0.2-0.5,0.3-1,0.5-1.5
		c0.1-0.2,0.2-0.5,0.2-0.7c0.2-0.8,0.4-1.5,0.6-2.3l0,0c0.2-0.8,0.4-1.5,0.5-2.3c0-0.3,0.1-0.5,0.1-0.8c0.1-0.5,0.2-1.1,0.3-1.6
		c0-0.3,0.1-0.6,0.1-0.9c0-0.3,0.1-0.5,0.1-0.8c0.4,0.3,0.7,0.7,1.1,1c0.1,0.1,0.3,0.3,0.4,0.4c0.6,0.6,1.2,1.2,1.8,1.8
		c0.2,0.2,0.4,0.5,0.7,0.7c0.6,0.6,1.1,1.2,1.7,1.8c0.2,0.2,0.4,0.5,0.6,0.7c0.8,0.8,1.5,1.7,2.3,2.6c0.1,0.1,0.3,0.3,0.4,0.4
		c0,0,0.1,0.1,0.1,0.1c0,0,0,0,0,0c0.5,0.4,1.1,0.6,1.8,0.6c0.9,0,1.7-0.4,2.3-1c0.8-0.9,1.5-1.7,2.3-2.6c0.2-0.3,0.5-0.5,0.8-0.8
		c0.5-0.6,1-1.1,1.6-1.7c0.3-0.3,0.5-0.5,0.8-0.8c0.6-0.6,1.1-1.2,1.7-1.7c0.2-0.2,0.4-0.4,0.6-0.6c0.3-0.3,0.7-0.6,1-1
		c0,0.3,0.1,0.5,0.1,0.8c0,0.3,0.1,0.6,0.1,0.9c0.1,0.5,0.2,1.1,0.3,1.6c0,0.3,0.1,0.5,0.1,0.8c0.2,0.8,0.3,1.5,0.5,2.3l0,0
		c0.2,0.8,0.4,1.5,0.6,2.3c0.1,0.2,0.1,0.5,0.2,0.7c0.2,0.5,0.3,1,0.5,1.5c0.1,0.3,0.2,0.6,0.3,0.8c0.2,0.5,0.3,0.9,0.5,1.4
		c0.1,0.3,0.2,0.6,0.3,0.8c0.2,0.5,0.4,0.9,0.6,1.4c0.1,0.3,0.2,0.5,0.3,0.8c0.3,0.5,0.5,1.1,0.8,1.6c0.1,0.2,0.2,0.3,0.3,0.5
		c0.4,0.7,0.7,1.4,1.1,2.1c0.1,0.2,0.2,0.3,0.3,0.5c0.3,0.5,0.6,1,0.9,1.5c0.2,0.2,0.3,0.5,0.5,0.7c0.3,0.4,0.6,0.9,0.9,1.3
		c0.2,0.2,0.4,0.5,0.5,0.7c0.3,0.4,0.6,0.8,0.9,1.2c0.2,0.2,0.4,0.5,0.6,0.7c0.3,0.4,0.7,0.8,1,1.3c0.2,0.2,0.3,0.4,0.5,0.6
		c0.5,0.6,1.1,1.2,1.6,1.8c6.6,6.8,14.9,11.6,24,14.1C663.1,233.7,660.1,239,656.5,243.9z M629.8,224.9c-2.5-7.3-5.9-11.1-9.2-14.9
		c-0.7-0.8-1.5-1.6-2.2-2.5c-0.6-0.7-1.4-1.1-2.3-1.1s-1.7,0.4-2.3,1.1c-0.7,0.9-1.5,1.7-2.2,2.5c-3.3,3.8-6.7,7.7-9.2,14.9
		c-0.2,0.5-0.2,0.9-0.1,1.4c2,13.1,9,23.9,11.3,27.5c0.6,0.9,1.5,1.4,2.5,1.4s2-0.5,2.5-1.4c2.3-3.6,9.4-14.4,11.3-27.5
		C630,225.8,630,225.4,629.8,224.9z"/>
	<path fill="#8C643A" d="M119.8,0.2c0,0,0.1,0,0.1,0c10.6,23.3,24.8,43.3,43.5,61.3c8,7.7,16.8,15,26.4,21.8c0,0.5,0,1.1,0,1.6
		c0,10.8,1.2,21.6,3.6,32.2c-7.5-1.2-14.6-3.2-21.3-5.8C127.3,74.3,118.9,30.5,119.8,0.2z M374.9,188.1
		c-36.5-7.5-74.2-15.3-106.5-30.3c-19.5-9.1-36-20.4-49.7-34.1c-1.7-1.7-4.5,0.4-3.2,2.5c14.9,24.6,36.2,44.6,64.5,60.6
		c36.1,20.5,78.7,32.2,119.9,43.6c29.3,8.1,57.7,15.9,82.6,26.5c0.9,0.4,2-0.2,2.1-1.2c0.2-1.8,0.4-3.6,0.7-5.4
		c-0.4-0.7-0.8-1.4-1.2-2.1c-0.7-1.3-2.6-1-2.9,0.5l0,0.1c-0.2,1-0.7,1.9-1.7,2.4c-1.5,0.7-3.1,0.2-3.9-1.2c-6.5-11-9.8-23.1-9.8-36
		c0-0.8,0-1.7,0-2.5C436.7,200.8,405.6,194.4,374.9,188.1z M445,317.1c1.2-8.6,2.4-17.5,3.9-26.3c-19.1-7.2-39.9-12.5-60.3-17.5
		c-3,8.8-5.7,17.6-8.3,26.2c-11,36.5-21.5,70.9-57.2,93.6c-9.4,13.7-21.5,24.5-35,31.2c-0.7,0.3-0.8,0.9-0.7,1.3
		c0,0.3,0.1,0.9,0.9,1.2c40.9,16,67.4,14.9,114.3,5.7C434.5,393.9,439.6,356.5,445,317.1z M239.9,337.1
		c42.7-20.6,68.7-51.6,91.2-79.6c-14-4.6-27.6-10.1-40.1-16.9c-8.1-4.4-15.7-9.3-23-14.6c-2.2,1.7-4.5,3.4-6.7,5.1
		c-32.6,24.9-66.4,50.7-107.6,63.7C136.1,306.5,117,314,96.9,317c-0.8,0.1-1.1,0.7-1.2,1.1c-0.1,0.3-0.2,1.1,0.6,1.6
		c20.9,15,45.4,21.7,79.4,21.7c16.3,0,33.3-1.5,49.8-3C230.2,338,235.1,337.5,239.9,337.1z M66.8,230.6c7.2,1.7,12.2,1.5,18.5,1.3
		c2.4-0.1,5-0.2,7.9-0.2c47.3,0,82.8-19.8,117.2-38.9c4.9-2.7,10-5.5,15-8.3c-6-8-11.4-16.3-16-24.9c-2,0.6-3.9,1.2-5.9,1.8
		c-23.2,7-47.1,14.3-72.1,14.3c-10.9,0-19.1-1.7-28.6-4.6c-8,1-15.9,1.5-23.6,1.5c-29.4,0-55.1-7-76.3-20.7c-1-0.6-1.8-0.2-2.1,0.1
		c-0.3,0.2-1,0.9-0.6,2C10.5,187,34.8,214.9,66.8,230.6z M476.3,469c-0.9,3.4-1.7,6.4-2.4,9.4c-2.1,8.1-3.7,14.8-6.9,23.2
		c8.9-1.3,18-3,26.9-4.7c8.2-1.5,16.5-3.1,24.9-4.4c0.9-1.6,1.8-3.1,2.8-4.6c-2.1,0.2-4.2,0.5-6.2,0.9c-1,0.2-2.1-0.2-2.8-1
		c-0.7-0.8-0.9-1.9-0.6-2.9c3-9.2,8.1-17.9,15.5-26.5c-7.6-12.7-16-28.7-23.3-47.6c-0.4-1-0.7-1.9-1.1-2.9
		C496.5,427.8,487.8,447.8,476.3,469z M1068.8,61.3c-8,7.7-16.8,15-26.4,21.8c0,0.5,0,1.1,0,1.6c0,10.8-1.2,21.6-3.6,32.2
		c7.5-1.2,14.6-3.2,21.3-5.8c44.8-37,53.2-80.7,52.3-111.1c0,0-0.1,0-0.1,0C1101.7,23.3,1087.5,43.4,1068.8,61.3z M909,392.9
		c-35.8-22.6-46.2-57.1-57.2-93.6c-2.6-8.6-5.3-17.4-8.3-26.2c-20.4,5.1-41.1,10.3-60.3,17.5c1.5,8.8,2.8,17.7,3.9,26.3
		c5.4,39.5,10.6,76.8,42.4,115.4c47,9.1,73.4,10.3,114.3-5.7c0.8-0.3,0.9-1,0.9-1.2c0-0.3-0.1-0.9-0.7-1.3
		C930.5,417.3,918.4,406.5,909,392.9z M1078.5,294.7c-41.2-13-74.9-38.8-107.6-63.7c-2.3-1.7-4.5-3.4-6.7-5.1
		c-7.3,5.3-14.9,10.2-23,14.6c-12.6,6.9-26.1,12.3-40.1,16.9c22.5,28,48.5,59,91.2,79.6c4.8,0.4,9.7,0.8,14.5,1.3
		c16.5,1.5,33.5,3,49.8,3c34,0,58.5-6.7,79.4-21.7c0.8-0.5,0.7-1.3,0.6-1.6c-0.1-0.4-0.4-1-1.2-1.1
		C1115.2,313.8,1096.1,306.4,1078.5,294.7z M952.2,186.7c28.2-16,49.5-36,64.5-60.6c1.3-2.1-1.5-4.3-3.2-2.5
		c-13.7,13.7-30.1,25-49.7,34.1c-32.3,15-70,22.8-106.5,30.3c-30.7,6.3-61.8,12.8-90.9,23.5c0,0.9,0.1,1.8,0.1,2.6
		c0,12.8-3.3,24.9-9.8,35.9c-0.5,0.9-1.4,1.5-2.4,1.6c-1.6,0.1-3-1-3.2-2.5l0-0.1c-0.2-1.6-2.4-1.9-3.1-0.5c-0.3,0.7-0.7,1.3-1,1.9
		c0.2,1.7,0.4,3,0.6,4.4c0.1,1.1,1.3,1.7,2.3,1.3c24.8-10.6,53.2-17.7,82.5-25.7C873.5,218.9,916.1,207.2,952.2,186.7z M728.2,410.8
		c-7.4,18.9-15.7,34.9-23.3,47.6c7.4,8.5,12.5,17.3,15.5,26.5c0.3,1,0.1,2.1-0.6,2.9c-0.7,0.8-1.8,1.2-2.8,1
		c-2.1-0.4-4.1-0.7-6.2-0.9c0.9,1.4,1.8,2.9,2.7,4.4c8.4,1.3,16.7,2.9,25,4.4c8.9,1.7,18,3.4,26.9,4.7c-3.2-8.4-4.9-15.1-6.9-23.2
		c-0.7-2.9-1.5-6-2.4-9.4c-11.5-21.2-20.2-41.1-26.6-61C729,408.9,728.6,409.9,728.2,410.8z M1231.5,151.8c-0.3-0.2-1.1-0.7-2.1-0.1
		c-21.2,13.8-46.9,20.7-76.3,20.7c-7.7,0-15.6-0.5-23.6-1.5c-9.5,2.8-17.7,4.6-28.6,4.6c-25.1,0-49-7.3-72.1-14.3
		c-2-0.6-3.9-1.2-5.9-1.8c-4.6,8.6-10,16.9-16,24.9c5,2.7,10.1,5.5,15,8.3c34.4,19.1,69.9,38.9,117.2,38.9c2.9,0,5.4,0.1,7.9,0.2
		c6.3,0.2,11.3,0.4,18.5-1.3c32-15.7,56.3-43.6,66.7-76.7C1232.4,152.7,1231.8,152,1231.5,151.8z M573.2,549.4
		c2.3-9.2,2.1-19.3,1.8-29c0-1.1,0.6-2.2,1.6-2.7c1-0.5,2.2-0.5,3.1,0.2c2.5,1.7,4.8,3.5,7,5.4c0-1.5-0.1-3-0.2-4.4
		c-13.8-12.5-22.6-27.8-27-37.3l-2.6,11.4c-0.3,1.5-1.8,2.5-3.4,2.3c-1.2-0.2-2.1-1-2.4-2.1c-0.4-0.6-1.6-2.3-2.8-3.9
		c-3.6-4.8-10.1-13.4-17.6-25.4c-5,6-8.7,12-11.4,18.2c2.6-0.3,5.2-0.5,7.9-0.5c1.1,0,2.2,0.6,2.7,1.6c0.5,1,0.5,2.2-0.1,3.1
		c-4.7,7.2-9.9,15.5-12.8,24.4c3.8-0.4,7.5-0.5,11.1-0.3c1.1,0,2.1,0.7,2.6,1.7c0.5,1,0.4,2.2-0.2,3.1c-5,7.2-8.2,13.6-9.8,19.7
		c4.2-1.4,8.6-2.7,13.1-3.3c1.3-0.2,2.6,0.6,3.1,1.8c3.2,7.3,6.9,14,11,20c2.5-6,5.4-11.9,9.6-16.8c0.5-0.6,1.3-1,2.1-1
		c0.8,0,1.6,0.2,2.2,0.8C566.1,540.1,569.9,544.5,573.2,549.4z M481.7,621.2c-2.4,4.5-4.1,9.4-5.8,14.3c-0.3,0.8,0.6,1.6,1.4,1.1
		c4.3-2.7,8.4-5.8,12.7-8.6C486.8,626.2,484,623.9,481.7,621.2z M529,672.1c0.3,0.8,1.5,0.8,1.7-0.1c1.1-3.8,2.1-7.8,3.1-11.6
		c-2.9,0-6,0.1-9.1,0.2C525.9,664.4,527.5,668.3,529,672.1z M572.2,659.7c0.4,0.8,1.6,0.5,1.7-0.3c0.9-5.8,1.7-11.7,1.4-17.4
		c-3.1,2.1-6.7,3.8-9.9,5.3C567.8,651.4,569.9,655.7,572.2,659.7z M742.1,628c4.3,2.8,8.5,5.8,12.7,8.6c0.7,0.5,1.7-0.2,1.4-1.1
		c-1.7-4.9-3.4-9.8-5.8-14.3C748.2,623.9,745.4,626.2,742.1,628z M701.4,672c0.2,0.8,1.4,0.9,1.7,0.1c1.5-3.8,3.1-7.6,4.2-11.5
		c-3.1-0.1-6.1-0.2-9.1-0.2C699.4,664.2,700.3,668.1,701.4,672z M658.2,659.4c0.1,0.9,1.3,1.1,1.7,0.3c2.3-4.1,4.4-8.3,6.7-12.4
		c-3.2-1.5-6.8-3.3-9.9-5.3C656.5,647.7,657.3,653.6,658.2,659.4z M695.3,533.3c0.5-1.2,1.8-1.9,3.1-1.8c4.6,0.6,8.9,1.9,13.1,3.3
		c-1.6-6.2-4.8-12.6-9.8-19.7c-0.6-0.9-0.7-2.1-0.2-3.1c0.5-1,1.5-1.6,2.6-1.7c3.6-0.1,7.2,0,11.1,0.3c-2.9-8.9-8.1-17.2-12.8-24.4
		c-0.6-0.9-0.7-2.1-0.1-3.1c0.5-1,1.6-1.6,2.7-1.6c2.7,0.1,5.3,0.2,7.9,0.5c-2.6-6.2-6.4-12.3-11.4-18.2c-7.5,12-14,20.6-17.6,25.4
		c-1.2,1.6-2.5,3.3-2.8,3.9c-0.3,1.1-1.3,1.9-2.4,2.1c-1.6,0.2-3-0.8-3.4-2.3l-2.6-11.4c-4.5,9.4-13.2,24.8-27,37.3
		c-0.1,1.5-0.2,2.9-0.2,4.4c2.2-1.9,4.5-3.6,7-5.4c0.9-0.6,2.1-0.7,3.1-0.2c1,0.5,1.6,1.6,1.6,2.7c-0.2,9.8-0.5,19.8,1.8,29
		c3.3-4.8,7.1-9.3,11.3-13.2c0.6-0.6,1.4-0.8,2.2-0.8c0.8,0,1.6,0.4,2.1,1c4.3,5,7.1,10.9,9.6,16.8
		C688.5,547.3,692.2,540.6,695.3,533.3z M516.4,135.8c0.1,0.1,0.3,0.1,0.4,0.2c0.6,0.3,1.3,0.6,1.9,0.9c0.3,0.2,0.7,0.3,1,0.5
		c0.8,0.4,1.6,0.7,2.5,1.1c0.3,0.1,0.7,0.3,1,0.4c0.8,0.3,1.7,0.7,2.5,1c0.4,0.2,0.8,0.3,1.2,0.5c0.7,0.3,1.3,0.5,2,0.8
		c0.1,0,0.2,0.1,0.3,0.1c-0.3,0.3-0.7,0.6-1,0.9c-0.1,0.1-0.1,0.1-0.2,0.2c-0.4,0.4-0.9,0.7-1.3,1.1c-0.1,0.1-0.3,0.2-0.4,0.4
		c-0.3,0.3-0.6,0.5-0.9,0.8c-0.2,0.2-0.3,0.3-0.5,0.5c-0.2,0.2-0.5,0.5-0.7,0.7c-0.2,0.2-0.3,0.3-0.5,0.5c-0.2,0.2-0.5,0.5-0.7,0.7
		c-0.2,0.2-0.3,0.4-0.5,0.5c-0.2,0.2-0.4,0.5-0.6,0.7c-0.2,0.2-0.3,0.4-0.5,0.6c-0.2,0.2-0.4,0.5-0.6,0.7c-0.2,0.2-0.3,0.4-0.5,0.6
		c-0.2,0.2-0.4,0.5-0.6,0.7c-0.2,0.2-0.3,0.4-0.5,0.6c-0.2,0.3-0.4,0.5-0.6,0.8c-0.1,0.2-0.3,0.4-0.4,0.5c-0.2,0.3-0.4,0.6-0.7,0.9
		c-0.1,0.1-0.2,0.3-0.3,0.4c-0.3,0.4-0.6,0.9-0.9,1.4c-0.1,0.1-0.2,0.3-0.3,0.4c-0.2,0.3-0.4,0.6-0.6,1c-0.1,0.2-0.2,0.4-0.3,0.6
		c-0.2,0.3-0.3,0.6-0.5,0.8c-0.1,0.2-0.2,0.4-0.4,0.6c-0.2,0.3-0.3,0.5-0.5,0.8c-0.1,0.2-0.2,0.4-0.3,0.6c-0.1,0.3-0.3,0.5-0.4,0.8
		c-0.1,0.2-0.2,0.4-0.3,0.7c-0.1,0.3-0.3,0.5-0.4,0.8c-0.1,0.2-0.2,0.4-0.3,0.7c-0.1,0.3-0.3,0.6-0.4,0.8c-0.1,0.2-0.2,0.4-0.3,0.6
		c-0.1,0.3-0.2,0.6-0.4,0.9c-0.1,0.2-0.2,0.4-0.2,0.6c-0.1,0.3-0.2,0.7-0.4,1c-0.1,0.2-0.1,0.3-0.2,0.5c-0.2,0.5-0.3,1-0.5,1.5
		c0,0.1-0.1,0.2-0.1,0.3c-0.1,0.4-0.2,0.8-0.4,1.2c-0.1,0.2-0.1,0.4-0.2,0.6c-0.1,0.3-0.2,0.6-0.3,1c-0.1,0.2-0.1,0.4-0.2,0.6
		c-0.1,0.3-0.1,0.6-0.2,0.9c0,0.2-0.1,0.4-0.1,0.7c-0.1,0.3-0.1,0.6-0.2,0.9c0,0.2-0.1,0.4-0.1,0.7c-0.1,0.3-0.1,0.6-0.1,0.9
		c0,0.2-0.1,0.4-0.1,0.7c0,0.3-0.1,0.6-0.1,0.9c0,0.2-0.1,0.4-0.1,0.7c0,0.3-0.1,0.6-0.1,0.9c0,0.2,0,0.4,0,0.6c0,0.3,0,0.7-0.1,1
		c0,0.2,0,0.3,0,0.5c0,0.5,0,1,0,1.6c0,12.8,4.7,24.6,13.3,33.2c0.5,0.5,1.1,1,1.6,1.5c8.2,7.4,18.8,11.5,30.1,11.5
		c3.3,0,6.6-0.3,9.8-0.9c3.2,7.6,7.4,14.6,12.6,20.9c0.5,0.7,1.4,1,2.2,0.8c0.8-0.2,1.5-0.8,1.7-1.6c0.4-1.3,0.8-2.6,1.3-3.9
		c2.9,5.7,6.6,10.7,10.9,15.1c0.6,0.6,1.6,0.8,2.5,0.5c0.8-0.4,1.4-1.2,1.4-2.1l0-0.3c5.9,6.8,12.7,12.3,20.2,16.4
		c0.3,0.2,0.7,0.3,1.1,0.3c0.4,0,0.7-0.1,1.1-0.3c7.6-4.1,14.4-9.6,20.2-16.4l0,0.3c0,0.9,0.5,1.7,1.4,2.1c0.8,0.4,1.8,0.2,2.5-0.5
		c4.3-4.3,8-9.4,10.9-15.1c0.5,1.3,0.9,2.6,1.3,3.9c0.2,0.8,0.9,1.4,1.7,1.6c0.8,0.2,1.7-0.1,2.2-0.8c5.2-6.3,9.4-13.4,12.6-20.9
		c3.2,0.6,6.5,0.9,9.8,0.9c1.5,0,3-0.1,4.5-0.2c10.3-1,19.9-5.5,27.2-12.8c8.5-8.6,13.3-20.4,13.3-33.2c0-0.5,0-1,0-1.6
		c0-0.2,0-0.3,0-0.5c0-0.3,0-0.7-0.1-1c0-0.2,0-0.4,0-0.6c0-0.3-0.1-0.6-0.1-0.9c0-0.2,0-0.4-0.1-0.7c0-0.3-0.1-0.6-0.1-0.9
		c0-0.2-0.1-0.4-0.1-0.7c0-0.3-0.1-0.6-0.1-0.9c0-0.2-0.1-0.4-0.1-0.7c-0.1-0.3-0.1-0.6-0.2-0.9c0-0.2-0.1-0.4-0.1-0.7
		c-0.1-0.3-0.1-0.6-0.2-0.9c0-0.2-0.1-0.4-0.2-0.6c-0.1-0.3-0.2-0.6-0.3-1c-0.1-0.2-0.1-0.4-0.2-0.6c-0.1-0.4-0.2-0.8-0.4-1.2
		c0-0.1-0.1-0.2-0.1-0.3c-0.2-0.5-0.3-1-0.5-1.5c-0.1-0.2-0.1-0.3-0.2-0.5c-0.1-0.3-0.2-0.7-0.4-1c-0.1-0.2-0.2-0.4-0.2-0.6
		c-0.1-0.3-0.2-0.6-0.4-0.9c-0.1-0.2-0.2-0.4-0.3-0.6c-0.1-0.3-0.2-0.6-0.4-0.8c-0.1-0.2-0.2-0.4-0.3-0.7c-0.1-0.3-0.3-0.5-0.4-0.8
		c-0.1-0.2-0.2-0.4-0.3-0.7c-0.1-0.3-0.3-0.5-0.4-0.8c-0.1-0.2-0.2-0.4-0.3-0.6c-0.1-0.3-0.3-0.5-0.5-0.8c-0.1-0.2-0.2-0.4-0.4-0.6
		c-0.2-0.3-0.3-0.6-0.5-0.8c-0.1-0.2-0.2-0.4-0.3-0.6c-0.2-0.3-0.4-0.6-0.6-1c-0.1-0.1-0.2-0.3-0.3-0.4c-0.3-0.5-0.6-0.9-0.9-1.4
		c-0.1-0.1-0.2-0.3-0.3-0.4c-0.2-0.3-0.4-0.6-0.7-0.9c-0.1-0.2-0.3-0.4-0.4-0.5c-0.2-0.3-0.4-0.5-0.6-0.8c-0.1-0.2-0.3-0.4-0.5-0.6
		c-0.2-0.2-0.4-0.5-0.6-0.7c-0.2-0.2-0.3-0.4-0.5-0.6c-0.2-0.2-0.4-0.5-0.6-0.7c-0.2-0.2-0.3-0.4-0.5-0.6c-0.2-0.2-0.4-0.5-0.6-0.7
		c-0.2-0.2-0.3-0.4-0.5-0.5c-0.2-0.2-0.4-0.5-0.7-0.7c-0.2-0.2-0.3-0.3-0.5-0.5c-0.2-0.2-0.5-0.5-0.7-0.7c-0.2-0.2-0.3-0.3-0.5-0.5
		c-0.3-0.3-0.6-0.5-0.9-0.8c-0.1-0.1-0.3-0.2-0.4-0.4c-0.4-0.4-0.9-0.8-1.3-1.1c-0.1-0.1-0.2-0.1-0.2-0.2c-0.3-0.3-0.7-0.6-1-0.8
		c0.1,0,0.2-0.1,0.3-0.1c0.7-0.3,1.4-0.5,2-0.8c0.4-0.2,0.8-0.3,1.3-0.5c0.8-0.3,1.5-0.6,2.3-0.9c0.5-0.2,0.9-0.4,1.4-0.6
		c0.8-0.3,1.6-0.7,2.3-1c0.3-0.2,0.7-0.3,1-0.5c0.6-0.3,1.3-0.6,1.9-0.9c0.1-0.1,0.3-0.1,0.4-0.2c27.6,20.8,44.6,50.7,44.6,78.3
		c0,8.9-1.7,17.4-5.2,25.4c-0.6-2.2-1.2-4.2-2-6c-0.5-1.2-1.7-2-3-1.9c-1.3,0.1-2.4,1-2.7,2.2c-1.6,5.9-4.1,11.2-7.4,16
		c-0.7-1.7-1.5-3.3-2.3-4.7c-0.6-1-1.8-1.6-3-1.5c-1.2,0.1-2.2,1-2.5,2.2c0,0.1-3.3,11.1-14.6,19.3l-4.4-7.7
		c-0.5-0.8-1.3-1.4-2.3-1.5c-1-0.1-1.9,0.2-2.6,0.9c-0.1,0.1-10.3,11-23.6,17.9l-3-9.2c-0.3-1-1.2-1.8-2.3-2c-1.1-0.2-2.2,0.2-2.9,1
		c-0.1,0.1-8.5,10-20.3,14.9c-0.1-1-0.3-2.1-0.5-3.2c-1.1-6.8-1.4-9.1-4.1-9.4c-1.3-0.1-2.5,0.6-3,1.7c-1.7,2-14.8,12.3-32.7,17.8
		c-17.9-5.5-31-15.8-32.7-17.8c-0.6-1.1-1.8-1.8-3-1.7c-2.7,0.3-3.1,2.6-4.1,9.4c-0.2,1.1-0.3,2.2-0.5,3.2
		c-11.8-4.9-20.2-14.8-20.3-14.9c-0.7-0.8-1.8-1.2-2.9-1c-1.1,0.2-2,1-2.3,2l-3,9.2c-13.3-6.9-23.5-17.8-23.6-17.9
		c-0.7-0.7-1.6-1.1-2.6-1c-1,0.1-1.8,0.7-2.3,1.5l-4.4,7.7c-11.2-8.2-14.5-19.2-14.6-19.3c-0.3-1.2-1.3-2-2.5-2.2
		c-1.2-0.2-2.4,0.4-3,1.5c-0.9,1.5-1.6,3.1-2.3,4.7c-3.3-4.8-5.8-10.2-7.4-16c-0.3-1.2-1.4-2.1-2.7-2.2c-1.3-0.1-2.5,0.7-3,1.9
		c-0.8,1.9-1.4,3.9-2,6c-3.4-8-5.2-16.5-5.2-25.4C471.8,186.4,488.8,156.6,516.4,135.8z M726.7,157.3c5.9,7.7,10.1,15.7,12.6,24
		c0.3,1,1.2,1.6,2.2,1.6c0.2,0,0.4,0,0.6-0.1c1.2-0.4,1.9-1.6,1.5-2.8c-2.6-8.8-7.1-17.4-13.3-25.5c-0.8-1-2.2-1.2-3.2-0.4
		C726.1,154.9,725.9,156.3,726.7,157.3z M699.3,250.7c-0.9-0.9-2.3-0.9-3.2,0c-2.7,2.7-5.7,5.4-9.2,8.4c-0.9,0.8-1.1,2.2-0.2,3.2
		c0.4,0.5,1.1,0.8,1.7,0.8c0.5,0,1-0.2,1.5-0.5c3.6-3.1,6.6-5.9,9.4-8.7C700.2,253,700.2,251.5,699.3,250.7z M721,227.6
		c0.7-1.1,0.3-2.5-0.7-3.1c-1.1-0.7-2.5-0.3-3.1,0.7c-3.2,5.2-7.1,11.2-12.3,15.1c-1,0.7-1.2,2.2-0.5,3.2c0.4,0.6,1.1,0.9,1.8,0.9
		c0.5,0,0.9-0.1,1.4-0.5C713.4,239.5,717.6,233.2,721,227.6z M728.7,232.3c-1.2-0.4-2.5,0.3-2.8,1.5c-0.3,1.1-0.6,2.2-0.9,3.3
		c-0.9,3.2-1.7,6.2-3.2,9c-0.6,1.1-0.2,2.5,0.9,3.1c0.3,0.2,0.7,0.3,1.1,0.3c0.8,0,1.6-0.4,2-1.2c1.8-3.3,2.8-6.7,3.7-10
		c0.3-1.1,0.6-2.1,0.9-3.2C730.5,233.9,729.9,232.6,728.7,232.3z M750.1,192.5c-1.2,0.1-2.2,1.2-2.1,2.4c0.1,0.7,0.1,1.5,0.2,2.2
		c0.2,2.8,0.4,5.7,0.4,8.5c0,2.9-0.2,5.3-0.7,7.6c-0.3,1.2,0.5,2.4,1.7,2.7c0.2,0,0.3,0.1,0.5,0.1c1,0,2-0.7,2.2-1.8
		c0.5-2.6,0.8-5.3,0.8-8.5c0-3-0.2-5.9-0.4-8.8c-0.1-0.7-0.1-1.5-0.2-2.2C752.5,193.3,751.4,192.4,750.1,192.5z M727.9,220.8
		c-0.5,1.2,0.1,2.5,1.3,2.9c0.3,0.1,0.6,0.2,0.8,0.2c0.9,0,1.7-0.5,2.1-1.4c2.6-6.5,3.4-13,4.3-19.8l0.2-1.4c0.2-1.2-0.7-2.4-2-2.5
		c-1.2-0.2-2.4,0.7-2.5,2l-0.2,1.4C731,208.6,730.3,214.8,727.9,220.8z M681,247.4c-1,0.8-1.1,2.2-0.4,3.2c0.4,0.6,1.1,0.8,1.8,0.8
		c0.5,0,1-0.2,1.4-0.5c1.1-0.9,2.2-1.7,3.3-2.6c3.5-2.7,7.2-5.4,10-9c0.8-1,0.6-2.4-0.4-3.2c-1-0.8-2.4-0.6-3.2,0.4
		c-2.5,3.1-5.8,5.6-9.2,8.2C683.3,245.6,682.2,246.5,681,247.4z M658,260.5c0.4,0.6,1.1,0.9,1.8,0.9c0.5,0,0.9-0.1,1.4-0.5
		c0.8-0.6,1.5-1.1,2.3-1.7c2.8-2.1,5.6-4.2,8.5-6.7c0.9-0.8,1-2.2,0.2-3.2c-0.8-0.9-2.2-1-3.2-0.2c-2.7,2.4-5.4,4.4-8.2,6.5
		c-0.8,0.6-1.5,1.1-2.3,1.7C657.5,258.1,657.3,259.6,658,260.5z M479.8,214.1c0.2,1.1,1.2,1.8,2.2,1.8c0.2,0,0.3,0,0.5-0.1
		c1.2-0.3,2-1.5,1.7-2.7c-0.5-2.2-0.7-4.7-0.7-7.6c0-2.8,0.2-5.7,0.4-8.5c0.1-0.7,0.1-1.5,0.2-2.2c0.1-1.2-0.8-2.3-2.1-2.4
		c-1.2-0.1-2.3,0.8-2.4,2.1c-0.1,0.7-0.1,1.5-0.2,2.2c-0.2,2.9-0.4,5.8-0.4,8.8C479,208.8,479.3,211.6,479.8,214.1z M510.5,246.1
		c-1.6-2.8-2.4-5.8-3.2-9c-0.3-1.1-0.6-2.2-0.9-3.3c-0.4-1.2-1.6-1.9-2.8-1.5c-1.2,0.4-1.9,1.6-1.5,2.8c0.3,1.1,0.6,2.1,0.9,3.2
		c0.9,3.3,1.8,6.7,3.7,10c0.4,0.7,1.2,1.2,2,1.2c0.4,0,0.7-0.1,1.1-0.3C510.7,248.5,511.1,247.2,510.5,246.1z M526,244.4
		c0.7,0,1.4-0.3,1.8-0.9c0.7-1,0.5-2.4-0.5-3.2c-5.2-3.9-9.1-9.8-12.3-15.1c-0.7-1.1-2-1.4-3.1-0.7c-1.1,0.7-1.4,2-0.7,3.1
		c3.4,5.6,7.6,11.9,13.4,16.3C525,244.2,525.5,244.4,526,244.4z M545.3,259.1c-3.5-3-6.4-5.7-9.2-8.4c-0.9-0.9-2.3-0.9-3.2,0
		c-0.9,0.9-0.9,2.3,0,3.2c2.8,2.8,5.8,5.6,9.4,8.7c0.4,0.4,0.9,0.5,1.5,0.5c0.6,0,1.3-0.3,1.7-0.8
		C546.3,261.3,546.2,259.9,545.3,259.1z M571.4,255.7c-2.8-2.1-5.5-4.1-8.2-6.5c-0.9-0.8-2.4-0.7-3.2,0.2c-0.8,0.9-0.7,2.4,0.2,3.2
		c2.9,2.5,5.8,4.6,8.5,6.7c0.7,0.6,1.5,1.1,2.3,1.7c0.4,0.3,0.9,0.5,1.4,0.5c0.7,0,1.4-0.3,1.8-0.9c0.7-1,0.5-2.4-0.5-3.2
		C572.9,256.8,572.2,256.3,571.4,255.7z M535,239.4c2.9,3.6,6.5,6.3,10,9c1.1,0.8,2.3,1.7,3.3,2.6c0.4,0.3,0.9,0.5,1.4,0.5
		c0.7,0,1.3-0.3,1.8-0.8c0.8-1,0.6-2.4-0.4-3.2c-1.1-0.9-2.3-1.8-3.4-2.6c-3.4-2.6-6.7-5.1-9.2-8.2c-0.8-1-2.2-1.1-3.2-0.4
		C534.3,237,534.2,238.4,535,239.4z M500.3,202.1l-0.2-1.4c-0.2-1.2-1.3-2.1-2.5-2c-1.2,0.2-2.1,1.3-2,2.5l0.2,1.4
		c0.8,6.8,1.6,13.3,4.3,19.8c0.4,0.9,1.2,1.4,2.1,1.4c0.3,0,0.6-0.1,0.8-0.2c1.2-0.5,1.7-1.8,1.3-2.9
		C501.9,214.8,501.2,208.6,500.3,202.1z M501.9,154.6c-6.2,8.1-10.7,16.7-13.3,25.5c-0.4,1.2,0.3,2.5,1.5,2.8
		c0.2,0.1,0.4,0.1,0.6,0.1c1,0,1.9-0.6,2.2-1.6c2.5-8.3,6.7-16.4,12.6-24c0.8-1,0.6-2.4-0.4-3.2
		C504.1,153.4,502.7,153.6,501.9,154.6z M526.1,591.6c1.5-6.9,4.1-22.8,6.7-38.2c0.6-3.6,1.2-7.3,1.8-10.8c-0.8-1.5-1.5-3.1-2.3-4.7
		c-2.4,0.4-4.9,1.1-7.3,1.9l-30.9,62.4C505.3,595.7,517.9,591.4,526.1,591.6z M592.8,522.8c0,0.3,0,0.6,0,1l0.1-1
		C592.9,522.8,592.8,522.8,592.8,522.8z M613.1,551.6c-4.3-5.4-9.4-18.2-13.8-30.9l-15.2,104.7c9.2,0.3,18.9,0.6,29,0.6V551.6z
		 M494.9,502.8c-5.1,1-10.3,1.9-15.5,2.8l-60.9,81.4c3.6,2.5,7.9,5,12.8,7.6c4.6,2.4,10,4.9,16.2,7.3l62.2-101.9
		C504.8,501,499.9,501.9,494.9,502.8z M648.1,625.4l-15.2-104.7c-4.3,12.7-9.4,25.4-13.8,30.9V626
		C629.2,626,638.9,625.8,648.1,625.4z M706.1,591.6c8.2-0.2,20.8,4.1,32,10.5l-30.9-62.4c-2.4-0.8-4.9-1.4-7.3-1.9
		c-0.7,1.6-1.5,3.2-2.3,4.7c0.6,3.5,1.2,7.2,1.8,10.8C702,568.8,704.6,584.6,706.1,591.6z M639.2,522.8l0.1,1c0-0.3,0-0.6,0-1
		C639.3,522.8,639.3,522.8,639.2,522.8z M765.5,482c1.8,7.1,3.7,13.5,7.2,21.9c0.4,1,0.3,2.1-0.4,3c-0.7,0.9-1.7,1.3-2.8,1.2
		c-2.8-0.4-5.6-0.8-8.4-1.2l57.3,76.7c10.9-8.4,15.3-15.5,16.8-18.4L765.5,482z M501.1,117.3c4.2,1.3,7.7,1.7,9.5,1.9
		c1.4,0.1,2.7-0.7,3.1-2c0.4-1.3-0.1-2.8-1.3-3.5c-9-5.7-16.9-15.9-21.3-27c3.9,3.2,8.7,6.3,14.7,8c1.4,0.4,2.8-0.3,3.5-1.5
		c0.6-1.3,0.3-2.8-0.8-3.7c-6.3-4.9-11-11.2-14.2-18.9c20.5,15.5,51.8,36.1,57.5,38.7c11.9,5.6,24.7,7.2,37.1,8.9
		c9.2,1.2,17.9,2.4,26.3,5c0.6,0.2,1.2,0.2,1.8,0c8.4-2.6,17.5-3.8,26.3-5c12.4-1.6,25.1-3.3,37-8.9c5.7-2.7,36.9-23.3,57.5-38.7
		c-3.2,7.6-7.9,14-14.2,18.9c-1.1,0.9-1.5,2.4-0.8,3.7c0.6,1.3,2.1,1.9,3.5,1.5c6.1-1.7,10.8-4.8,14.7-8
		c-4.4,11.2-12.3,21.4-21.3,27c-1.2,0.7-1.7,2.2-1.3,3.5c0.4,1.3,1.7,2.2,3.1,2c1.8-0.1,5.3-0.6,9.5-1.9c-3.9,4.7-9.2,8.7-16.3,12.3
		c-5.7,2.9-12.3,5.4-19.2,7.9c0,0,0,0,0,0l-3.1,1.1c-0.2,0.1-0.3,0.1-0.5,0.2c-0.9,0.3-1.8,0.7-2.7,1c-0.1,0-0.2,0.1-0.4,0.1
		c-1,0.4-2.1,0.8-3.1,1.2c-0.3,0.1-0.5,0.2-0.8,0.3c-0.9,0.3-1.8,0.7-2.7,1c-0.4,0.1-0.8,0.3-1.2,0.4c-0.8,0.3-1.5,0.6-2.3,0.9
		c-0.3,0.1-0.6,0.2-0.8,0.3c0,0,0,0-0.1,0c-13.7,5.5-28.6,12.7-43.5,24.6c0,0-0.1,0.1-0.1,0.1c-2,1.6-3.9,3.2-5.9,4.9
		c0,0,0,0-0.1,0.1c-0.3,0.2-0.5,0.5-0.8,0.7c0,0,0,0.1-0.1,0.1c-3.8,3.5-7.6,7.2-11.4,11.4c-3.8-4.2-7.6-8-11.4-11.4
		c0,0-0.1-0.1-0.1-0.1c-0.3-0.2-0.5-0.5-0.8-0.7c0,0,0,0-0.1-0.1c-1.9-1.7-3.9-3.4-5.9-4.9c-0.1,0-0.1-0.1-0.2-0.1
		c-14.8-11.8-29.8-19.1-43.5-24.5c0,0,0,0-0.1,0c-0.3-0.1-0.6-0.2-0.8-0.3c-0.8-0.3-1.6-0.6-2.3-0.9c-0.3-0.1-0.7-0.3-1-0.4
		c-1-0.4-1.9-0.7-2.9-1.1c-0.2-0.1-0.4-0.1-0.6-0.2c-2.4-0.9-4.8-1.8-7.1-2.6c-0.1,0-0.2-0.1-0.2-0.1l-2.6-1c0,0,0,0,0,0
		c-7-2.6-13.5-5.1-19.2-7.9C510.3,126,505,122,501.1,117.3z M578.6,138.4c-3.7-3.1-7.9-4.9-11.9-6.6c-2.2-0.9-4.2-1.8-6.1-2.8
		c-1.1-0.6-2.5-0.2-3.1,0.9c-0.6,1.1-0.2,2.5,0.9,3.1c2.1,1.2,4.4,2.1,6.5,3c3.9,1.7,7.6,3.2,10.8,5.9c0.4,0.4,0.9,0.5,1.4,0.5
		c0.6,0,1.3-0.3,1.7-0.8C579.7,140.6,579.5,139.2,578.6,138.4z M626.5,163.7c-0.7-1.1-2.1-1.4-3.1-0.7c-0.5,0.3-1,0.6-1.5,0.9
		c-2.1,1.3-3.9,2.4-5.7,4.1c-1.8-1.7-3.6-2.8-5.7-4.1c-0.5-0.3-1-0.6-1.5-0.9c-1.1-0.7-2.5-0.3-3.1,0.7c-0.7,1.1-0.3,2.5,0.7,3.1
		c0.6,0.3,1.1,0.7,1.6,1c2.6,1.6,4.3,2.7,6.4,5c0.4,0.5,1.1,0.8,1.7,0.8c0.7,0,1.3-0.3,1.7-0.8c2-2.4,3.8-3.4,6.4-5
		c0.5-0.3,1-0.6,1.6-1C626.8,166.1,627.1,164.7,626.5,163.7z M614.4,151.4c0.4,0.5,1,0.7,1.7,0.7s1.2-0.3,1.7-0.7
		c4.5-4.8,7.8-7.6,13-10.7c1.1-0.6,1.4-2,0.8-3.1c-0.6-1.1-2-1.4-3.1-0.8c-4.9,2.9-8.3,5.6-12.3,9.7c-4-4.1-7.4-6.8-12.3-9.7
		c-1.1-0.6-2.5-0.3-3.1,0.8c-0.6,1.1-0.3,2.5,0.8,3.1C606.6,143.8,610,146.6,614.4,151.4z M674.7,129.9c-0.6-1.1-2-1.5-3.1-0.9
		c-2,1.1-4,1.9-6.1,2.8c-4,1.7-8.2,3.5-11.9,6.6c-1,0.8-1.1,2.2-0.3,3.2c0.4,0.5,1.1,0.8,1.7,0.8c0.5,0,1-0.2,1.4-0.5
		c3.2-2.7,6.9-4.2,10.8-5.9c2.2-0.9,4.4-1.9,6.5-3C674.9,132.4,675.3,131,674.7,129.9z M693,112.4c0.4,0.7,1.2,1.1,2,1.1
		c0.4,0,0.8-0.1,1.1-0.3c4.7-2.8,9.7-6.5,15.1-11.4c0.9-0.8,1-2.3,0.2-3.2c-0.8-0.9-2.3-1-3.2-0.2c-5.2,4.7-9.9,8.2-14.4,10.8
		C692.8,110,692.4,111.4,693,112.4z M692.5,124c0.3,0.9,1.2,1.5,2.1,1.5c0.2,0,0.5,0,0.7-0.1c5.3-1.8,10-4.8,14.6-9.4
		c0.9-0.9,0.9-2.3,0-3.2c-0.9-0.9-2.3-0.9-3.2,0c-4.1,4.1-8.2,6.8-12.9,8.3C692.8,121.6,692.1,122.8,692.5,124z M664.9,123.4
		c0.2,1.1,1.1,1.9,2.2,1.9c0.1,0,0.3,0,0.4,0c4.7-0.9,8.7-2.6,13.5-5.8c1-0.7,1.3-2.1,0.6-3.1c-0.7-1-2.1-1.3-3.1-0.6
		c-4.3,2.9-7.7,4.4-11.8,5.1C665.5,121,664.7,122.2,664.9,123.4z M636.6,135.1c0.4,0.5,1.1,0.7,1.7,0.7c0.5,0,1.1-0.2,1.5-0.6
		c4.6-4.2,10.2-7.5,16.3-9.7c1.2-0.4,1.8-1.7,1.4-2.9c-0.4-1.2-1.7-1.8-2.9-1.4c-6.6,2.4-12.8,6-17.8,10.6
		C635.8,132.7,635.8,134.1,636.6,135.1z M635.9,150.5c-3,2.1-6.1,4.3-8.4,7.7c-0.7,1-0.4,2.4,0.6,3.1c0.4,0.3,0.8,0.4,1.3,0.4
		c0.7,0,1.4-0.4,1.9-1c1.8-2.7,4.5-4.6,7.2-6.5c0.8-0.6,1.7-1.2,2.6-1.8c1-0.7,1.2-2.2,0.5-3.2c-0.7-1-2.2-1.2-3.2-0.5
		C637.6,149.4,636.8,149.9,635.9,150.5z M602.1,128.3c3.9,0.4,8.6,3.1,12.3,5.5c0.4,0.4,1,0.7,1.6,0.7h0.1c0.6,0,1.2-0.2,1.6-0.7
		c3.7-2.4,8.4-5.1,12.3-5.5c1.2-0.1,2.1-1.3,2-2.5c-0.1-1.2-1.3-2.1-2.5-2c-4.5,0.5-9.2,3.1-13.4,5.7c-4.2-2.6-8.9-5.2-13.4-5.7
		c-1.2-0.1-2.4,0.8-2.5,2C600,127.1,600.9,128.2,602.1,128.3z M596.3,150.5c-0.8-0.6-1.6-1.1-2.4-1.7c-1-0.7-2.4-0.5-3.2,0.5
		c-0.7,1-0.5,2.4,0.5,3.2c0.8,0.6,1.7,1.2,2.6,1.8c2.8,1.9,5.4,3.8,7.2,6.5c0.4,0.7,1.2,1,1.9,1c0.4,0,0.9-0.1,1.3-0.4
		c1-0.7,1.3-2.1,0.6-3.1C602.4,154.8,599.3,152.6,596.3,150.5z M576.1,125.5c6.1,2.2,11.7,5.5,16.3,9.7c0.4,0.4,1,0.6,1.5,0.6
		c0.6,0,1.2-0.2,1.7-0.7c0.8-0.9,0.8-2.4-0.2-3.2c-5-4.6-11.2-8.2-17.8-10.6c-1.2-0.4-2.5,0.2-2.9,1.4
		C574.3,123.8,574.9,125.1,576.1,125.5z M551.1,119.5c4.8,3.2,8.8,4.9,13.5,5.8c0.1,0,0.3,0,0.4,0c1.1,0,2-0.8,2.2-1.9
		c0.2-1.2-0.6-2.4-1.8-2.6c-4.1-0.7-7.5-2.2-11.8-5.1c-1-0.7-2.4-0.4-3.1,0.6C549.8,117.4,550,118.8,551.1,119.5z M538.2,121.2
		c-4.7-1.6-8.7-4.2-12.9-8.3c-0.9-0.9-2.3-0.9-3.2,0c-0.9,0.9-0.9,2.3,0,3.2c4.6,4.6,9.3,7.6,14.6,9.4c0.2,0.1,0.5,0.1,0.7,0.1
		c0.9,0,1.8-0.6,2.1-1.5C540.1,122.8,539.4,121.6,538.2,121.2z M520.9,101.9c5.4,4.9,10.4,8.6,15.1,11.4c0.4,0.2,0.7,0.3,1.1,0.3
		c0.8,0,1.5-0.4,2-1.1c0.6-1.1,0.3-2.5-0.8-3.1c-4.5-2.6-9.2-6.2-14.4-10.8c-0.9-0.8-2.4-0.8-3.2,0.2S520,101,520.9,101.9z"/>
	<path fill="#E5D3BE" d="M372.3,158.3c32.5,9.6,65.8,19.4,97.3,31.4c-1.6,5.2-2.8,10.4-3.4,15.6c-29-10.5-59.8-16.8-90.2-23.1
		c-67.9-14-132.4-27.3-170.5-83.8c-1.2-1.8,0.9-4.1,2.8-2.9c4.9,2.9,10,5.8,15.3,8.6C268.2,127.6,321.2,143.2,372.3,158.3z
		 M765.9,205.1c29-10.5,59.8-16.8,90.2-23.1c67.9-14,132.4-27.3,170.5-83.8c1.2-1.8-0.9-4.1-2.8-2.9c-4.9,2.9-10,5.8-15.3,8.6
		c-44.5,23.5-97.4,39.1-148.6,54.2c-32.5,9.6-65.9,19.5-97.3,31.4C764.1,194.7,765.3,199.9,765.9,205.1z M679.7,485l-3.2-13.9
		c-0.3-1.3-1.4-2.3-2.8-2.3c-1.3-0.1-2.6,0.7-3,2c-0.1,0.3-8.8,24.5-28,42.5v-25c0-1.5-1.1-2.8-2.6-3c-1.5-0.2-2.9,0.7-3.3,2.2
		c-3.6,13.1-13.6,46.3-20.7,58c-7.1-11.7-17.1-44.9-20.7-58c-0.4-1.3-1.6-2.2-2.9-2.2c-0.1,0-0.3,0-0.4,0c-1.5,0.2-2.6,1.5-2.6,3v25
		c-19.2-18-27.9-42.2-28-42.5c-0.4-1.3-1.7-2.1-3-2c-1.3,0.1-2.5,1-2.8,2.3l-3.2,13.9c-62.3-82.9-68.8-167.9-62.1-227.4
		c0.1,0.1,0.2,0.3,0.3,0.4c0.7,0.8,1.9,1.2,2.9,1c1.1-0.2,2-1.1,2.3-2.1c0.3-1,0.6-2,0.9-3c2.8,5.2,8,12.4,17,18
		c0.7,0.4,1.5,0.6,2.3,0.4s1.5-0.7,1.9-1.4l4.1-7.1c4.6,4.4,14.1,12.7,25.7,17.9c0.8,0.4,1.7,0.4,2.5,0c0.8-0.3,1.4-1,1.6-1.8
		l2.5-7.7c4.5,4.3,12.7,11,22.9,14.2c0.8,0.3,1.8,0.1,2.5-0.3c0.7-0.5,1.2-1.3,1.4-2.1c0.4-2.7,0.8-5.8,1.2-8.2
		c6.5,5.2,19,12.6,32.8,16.7c0.3,0.1,0.6,0.1,0.9,0.1s0.6,0,0.9-0.1c14.3-4.2,26.5-11.6,32.8-16.7c0.4,2.4,0.8,5.5,1.2,8.2
		c0.1,0.9,0.6,1.7,1.4,2.1c0.7,0.5,1.7,0.6,2.5,0.3c10.2-3.2,18.4-9.9,22.9-14.2l2.5,7.7c0.3,0.8,0.9,1.5,1.6,1.8
		c0.8,0.3,1.7,0.3,2.5,0c11.6-5.2,21.1-13.5,25.7-17.9l4.1,7.1c0.4,0.7,1.1,1.2,1.9,1.4c0.8,0.2,1.6,0.1,2.3-0.4
		c9-5.6,14.2-12.8,17-18c0.3,0.9,0.6,1.9,0.9,3c0.3,1.1,1.2,1.9,2.3,2.1c1.1,0.2,2.2-0.1,2.9-1c0.1-0.1,0.2-0.3,0.3-0.4
		C748.4,317.1,741.9,402.1,679.7,485z M707.9,301.7c-1.6-0.2-3.2,0.9-3.4,2.6c-0.7,5.1-2.4,10.1-4.2,15.5c-1,2.9-2,5.9-2.8,8.9
		c-0.4,1.6,0.5,3.3,2.1,3.7c0.3,0.1,0.5,0.1,0.8,0.1c1.3,0,2.5-0.9,2.9-2.2c0.8-2.8,1.7-5.8,2.7-8.6c1.8-5.4,3.6-11,4.4-16.6
		C710.7,303.4,709.6,301.9,707.9,301.7z M688.8,378.2c-1.2,4.4-3.6,8.6-6,13c-1.9,3.3-3.8,6.7-5.3,10.4c-0.6,1.5,0.1,3.3,1.6,3.9
		c0.4,0.2,0.8,0.2,1.1,0.2c1.2,0,2.3-0.7,2.8-1.9c1.4-3.3,3.2-6.5,5-9.7c2.6-4.5,5.2-9.2,6.6-14.3c0.4-1.6-0.5-3.3-2.1-3.7
		C690.9,375.7,689.2,376.6,688.8,378.2z M656.3,451.4c5.7-8,11.4-16.6,14.6-26.1c0.5-1.6-0.3-3.3-1.9-3.8c-1.6-0.5-3.3,0.3-3.8,1.9
		c-2.9,8.7-8.4,16.9-13.7,24.5c-1,1.4-0.6,3.2,0.7,4.2c0.5,0.4,1.1,0.6,1.7,0.6C654.8,452.7,655.7,452.2,656.3,451.4z M636.3,426.3
		c-1.5-0.8-3.3-0.2-4.1,1.3c-3.1,5.9-9.3,14-16.2,21.1c-6.8-7.1-13-15.1-16-21c-0.8-1.5-2.6-2.1-4.1-1.3c-1.5,0.8-2.1,2.6-1.3,4.1
		c4.4,8.5,12.9,18.3,19.3,24.7c0.6,0.6,1.4,0.9,2.1,0.9c0.8,0,1.6-0.3,2.1-0.9c0.2-0.2,0.3-0.4,0.4-0.5c6.4-6.4,14.6-15.9,18.9-24.3
		C638.3,428.8,637.7,427,636.3,426.3z M631.5,460.6c-1.5-0.7-3.3,0.1-4,1.6c-1.9,4.5-5.3,8.2-8.9,12.1c-0.9,1-1.8,1.9-2.7,2.9
		c-0.8-1-1.7-1.9-2.6-2.8c-3.6-3.9-7-7.5-8.9-12.1c-0.7-1.5-2.4-2.2-4-1.6c-1.5,0.7-2.2,2.4-1.6,4c2.3,5.5,6.2,9.7,10,13.8
		c1.7,1.8,3.2,3.5,4.7,5.3c0.6,0.7,1.5,1.1,2.4,1.1c0.7,0,1.3-0.2,1.9-0.7c0.3-0.3,0.6-0.6,0.8-1c1.4-1.7,2.8-3.2,4.4-4.9
		c3.8-4.1,7.7-8.3,10-13.8C633.8,463,633.1,461.2,631.5,460.6z M580.1,452.2c1.4-1,1.7-2.8,0.7-4.2c-5.4-7.6-10.9-15.8-13.7-24.5
		c-0.5-1.6-2.2-2.4-3.8-1.9c-1.6,0.5-2.4,2.2-1.9,3.8c3.1,9.5,8.9,18.1,14.6,26.1c0.6,0.8,1.5,1.3,2.5,1.3
		C578.9,452.8,579.5,452.6,580.1,452.2z M635.9,379.1c-1.4-0.8-3.3-0.3-4.1,1.1c-3.6,6.2-8.3,11.5-13.3,17.1
		c-0.8,0.9-1.6,1.8-2.4,2.7c-0.8-0.9-1.6-1.8-2.3-2.6c-5-5.6-9.7-10.9-13.3-17.1c-0.8-1.4-2.7-1.9-4.1-1.1c-1.4,0.8-1.9,2.7-1.1,4.1
		c3.9,6.7,9,12.5,14,18.2c1.5,1.7,3.1,3.5,4.6,5.2c0.6,0.7,1.4,1.1,2.3,1.1c0.7,0,1.4-0.2,2-0.7c0.3-0.3,0.5-0.6,0.7-0.9
		c1.4-1.6,2.8-3.2,4.2-4.8c5-5.6,10.1-11.4,14-18.2C637.8,381.7,637.3,379.9,635.9,379.1z M678.8,337.4c-0.5,1.3-1,2.5-1.5,3.8
		c-2.3,5.8-4.5,11.3-8.1,16.7c-0.9,1.4-0.5,3.3,0.9,4.2c0.5,0.3,1.1,0.5,1.7,0.5c1,0,1.9-0.5,2.5-1.4c3.9-6,6.2-11.7,8.7-17.8
		c0.5-1.2,1-2.5,1.5-3.7c0.6-1.5-0.1-3.3-1.6-3.9C681.2,335.1,679.4,335.9,678.8,337.4z M665.7,319.9c0.4,0.2,0.9,0.3,1.3,0.3
		c1.1,0,2.2-0.6,2.7-1.7c2.3-4.7,4.3-9.4,6.6-15.7c0.6-1.6-0.2-3.3-1.8-3.9c-1.6-0.6-3.3,0.2-3.9,1.8c-2.2,6.1-4.1,10.6-6.3,15.1
		C663.6,317.4,664.2,319.2,665.7,319.9z M657.7,385.2c-4.4,11.1-9.1,21-14,29.6c-0.8,1.4-0.3,3.3,1.1,4.1c0.5,0.3,1,0.4,1.5,0.4
		c1,0,2.1-0.5,2.6-1.5c5.1-8.8,9.9-19,14.4-30.4c0.6-1.5-0.1-3.3-1.7-3.9C660,382.9,658.3,383.6,657.7,385.2z M648.8,350.2
		c-1.1,2-2.3,4.1-3.3,6.2c-0.7,1.5,0,3.3,1.5,4c0.4,0.2,0.8,0.3,1.2,0.3c1.1,0,2.2-0.7,2.7-1.8c0.9-2,2-3.9,3-5.8
		c1.9-3.4,3.8-6.8,4.9-10.6c0.4-1.6-0.5-3.3-2.1-3.7c-1.6-0.4-3.3,0.5-3.7,2.1C652.2,344.1,650.5,347.1,648.8,350.2z M635.4,325.6
		c0.4,0.2,0.9,0.3,1.3,0.3c1.1,0,2.2-0.6,2.7-1.7c0.6-1.3,1.3-2.5,2-3.9c2-3.8,4.2-7.8,5.4-12.2c0.4-1.6-0.5-3.3-2.1-3.7
		c-1.6-0.4-3.3,0.5-3.7,2.1c-1,3.7-2.9,7.2-4.9,10.9c-0.7,1.3-1.4,2.7-2.1,4C633.3,323,633.9,324.8,635.4,325.6z M598.7,345.2
		c5.2,9.1,10,16.2,15,22.5c0.6,0.7,1.5,1.1,2.3,1.1c0.7,0,1.3-0.2,1.9-0.7c0.4-0.3,0.6-0.6,0.8-1c4.9-6.1,9.6-13.1,14.7-22
		c0.8-1.4,0.3-3.3-1.1-4.1c-1.4-0.8-3.3-0.3-4.1,1.1c-4.2,7.4-8.2,13.5-12.2,18.8c-4-5.3-7.9-11.3-12.1-18.6
		c-0.8-1.4-2.7-1.9-4.1-1.1S597.9,343.8,598.7,345.2z M585.4,308.3c1.2,4.4,3.3,8.4,5.4,12.2c0.7,1.3,1.4,2.6,2,3.9
		c0.5,1.1,1.6,1.7,2.7,1.7c0.5,0,0.9-0.1,1.3-0.3c1.5-0.7,2.1-2.5,1.4-4c-0.7-1.4-1.4-2.7-2.1-4c-2-3.7-3.8-7.2-4.9-10.9
		c-0.4-1.6-2.1-2.5-3.7-2.1C585.9,305,584.9,306.7,585.4,308.3z M573.3,342.7c1,3.8,3,7.3,4.9,10.6c1.1,1.9,2.1,3.8,3,5.8
		c0.5,1.1,1.6,1.8,2.7,1.8c0.4,0,0.8-0.1,1.2-0.3c1.5-0.7,2.2-2.5,1.5-4c-1-2.2-2.1-4.2-3.3-6.2c-1.8-3.2-3.5-6.2-4.3-9.3
		c-0.4-1.6-2.1-2.6-3.7-2.1C573.8,339.4,572.9,341.1,573.3,342.7z M568.9,387.5c4.5,11.3,9.4,21.6,14.4,30.4c0.6,1,1.6,1.5,2.6,1.5
		c0.5,0,1-0.1,1.5-0.4c1.4-0.8,1.9-2.7,1.1-4.1c-4.9-8.6-9.6-18.5-14-29.6c-0.6-1.5-2.4-2.3-3.9-1.7
		C569,384.2,568.3,386,568.9,387.5z M567.8,316c-2.2-4.5-4.1-9-6.3-15.1c-0.6-1.6-2.3-2.4-3.9-1.8c-1.6,0.6-2.4,2.3-1.8,3.9
		c2.3,6.3,4.3,11,6.6,15.7c0.5,1.1,1.6,1.7,2.7,1.7c0.5,0,0.9-0.1,1.3-0.3C568,319.3,568.6,317.5,567.8,316z M547.8,339.8
		c0.5,1.3,1,2.5,1.5,3.7c2.4,6.1,4.7,11.9,8.7,17.8c0.6,0.9,1.5,1.4,2.5,1.4c0.6,0,1.1-0.2,1.7-0.5c1.4-0.9,1.8-2.8,0.9-4.2
		c-3.6-5.4-5.8-10.9-8.1-16.7c-0.5-1.2-1-2.5-1.5-3.8c-0.6-1.5-2.4-2.3-3.9-1.6C547.9,336.5,547.2,338.3,547.8,339.8z M539.7,376.2
		c-1.6,0.4-2.5,2.1-2.1,3.7c1.4,5.1,4,9.8,6.6,14.3c1.8,3.1,3.6,6.4,5,9.7c0.5,1.2,1.6,1.9,2.8,1.9c0.4,0,0.8-0.1,1.1-0.2
		c1.5-0.6,2.3-2.4,1.6-3.9c-1.5-3.7-3.4-7.1-5.3-10.4c-2.5-4.4-4.8-8.6-6-13C542.9,376.7,541.3,375.8,539.7,376.2z M521.7,305.2
		c0.8,5.6,2.6,11.2,4.4,16.6c0.9,2.8,1.9,5.8,2.7,8.6c0.4,1.3,1.6,2.2,2.9,2.2c0.3,0,0.5,0,0.8-0.1c1.6-0.4,2.5-2.1,2.1-3.7
		c-0.8-3-1.8-6-2.8-8.9c-1.8-5.4-3.5-10.4-4.2-15.5c-0.2-1.6-1.7-2.8-3.4-2.6C522.6,302,521.5,303.6,521.7,305.2z M511,312.3
		c-0.5-3.1-1.4-6.3-2.3-9.4c-1.2-4.2-2.5-8.6-2.5-12.5c0-1.7-1.3-3-3-3s-3,1.3-3,3c0,4.7,1.4,9.5,2.7,14.2c0.9,3,1.7,5.9,2.1,8.6
		c0.2,1.5,1.5,2.5,3,2.5c0.2,0,0.3,0,0.5,0C510.2,315.4,511.3,313.9,511,312.3z M521.8,375.6c0.5,1,1.6,1.6,2.6,1.6
		c0.5,0,1-0.1,1.4-0.4c1.5-0.8,2-2.6,1.2-4.1c-4.9-9-7.3-18.9-9.6-28.4c-0.7-3.1-1.5-6.3-2.4-9.3c-0.4-1.6-2.1-2.6-3.7-2.1
		c-1.6,0.4-2.6,2.1-2.1,3.7c0.8,3,1.5,6,2.3,9.2C514,355.6,516.5,365.9,521.8,375.6z M545.5,434c0.6,0.8,1.5,1.2,2.4,1.2
		c0.6,0,1.3-0.2,1.8-0.6c1.3-1,1.6-2.9,0.6-4.2c-3-4-5.3-8.4-7.6-13.1c-1-1.9-2-3.8-3-5.7c-0.8-1.5-2.6-2-4.1-1.2
		c-1.5,0.8-2,2.6-1.2,4.1c1,1.8,2,3.7,2.9,5.6C539.7,424.7,542.2,429.6,545.5,434z M694.9,419.9c0.9-1.8,1.9-3.8,2.9-5.6
		c0.8-1.5,0.3-3.3-1.2-4.1c-1.5-0.8-3.3-0.3-4.1,1.2c-1,1.9-2,3.9-3,5.7c-2.4,4.7-4.6,9-7.6,13.1c-1,1.3-0.7,3.2,0.6,4.2
		c0.5,0.4,1.2,0.6,1.8,0.6c0.9,0,1.8-0.4,2.4-1.2C690,429.4,692.5,424.6,694.9,419.9z M722.8,336.4c0.4-1.6-0.5-3.3-2.1-3.7
		c-1.6-0.4-3.3,0.5-3.7,2.1c-0.8,3.1-1.6,6.3-2.4,9.3c-2.3,9.5-4.7,19.4-9.6,28.4c-0.8,1.5-0.3,3.3,1.2,4.1c0.5,0.3,1,0.4,1.4,0.4
		c1.1,0,2.1-0.6,2.6-1.6c5.3-9.7,7.8-19.9,10.2-29.8C721.3,342.4,722,339.4,722.8,336.4z M723.7,315.6c0.2,0,0.3,0,0.5,0
		c1.5,0,2.7-1.1,3-2.5c0.4-2.7,1.3-5.6,2.1-8.6c1.3-4.7,2.7-9.5,2.7-14.2c0-1.7-1.3-3-3-3c-1.7,0-3,1.3-3,3c0,3.9-1.3,8.3-2.5,12.5
		c-0.9,3.1-1.8,6.3-2.3,9.4C720.9,313.8,722,315.3,723.7,315.6z M599.6,178.1c-0.4-0.4-0.9-0.8-1.3-1.2
		c-3.3,14.9-16.4,26.2-31.3,26.2c-10,0-18.3-3-24.1-8.6c-5.3-5.1-8.2-12.2-8.2-20c0-9.5,4.7-19.3,12.6-26.7
		c-3.2-1.2-6.4-2.4-9.5-3.5l-1.7-0.6c-14,9.9-22.6,25.1-22.6,40c0,22.9,16.7,40.2,38.9,40.2c13.1,0,25.2-5,34-14.1
		C594.6,201.3,599.3,190,599.6,178.1z M696.1,143.7l-1.7,0.6c-3.1,1.1-6.3,2.3-9.5,3.5c7.9,7.3,12.6,17.2,12.6,26.7
		c0,7.7-2.9,14.8-8.2,20c-5.8,5.7-14.2,8.6-24.1,8.6c-15,0-28-11.3-31.3-26.2c-0.4,0.4-0.9,0.8-1.3,1.2c0.3,11.9,4.9,23.2,13.2,31.7
		c8.8,9.1,20.9,14.1,34,14.1c10.4,0,20.2-4,27.4-11.2c7.4-7.4,11.5-17.7,11.5-29C718.7,168.7,710.1,153.5,696.1,143.7z"/>
	<path fill="#414042" d="M566.8,164.4c-7.1,0-12.8,5.7-12.8,12.8c0,7.1,5.7,12.8,12.8,12.8s12.8-5.7,12.8-12.8
		C579.6,170.2,573.9,164.4,566.8,164.4z M562.7,177.2c-2.3,0-4.1-1.8-4.1-4.1c0-2.3,1.8-4.1,4.1-4.1s4.1,1.8,4.1,4.1
		C566.8,175.4,565,177.2,562.7,177.2z M665.4,164.4c-7.1,0-12.8,5.7-12.8,12.8c0,7.1,5.7,12.8,12.8,12.8s12.8-5.7,12.8-12.8
		C678.2,170.2,672.4,164.4,665.4,164.4z M660.3,177.2c-2.3,0-4.1-1.8-4.1-4.1c0-2.3,1.8-4.1,4.1-4.1c2.3,0,4.1,1.8,4.1,4.1
		C664.4,175.4,662.6,177.2,660.3,177.2z"/>
	<path fill="#FDB724" d="M572.9,631.6c0.3,1.2,0.6,2.5,1,4c-2.7,2.3-7.1,4.4-10.8,6.2c-0.4-1.3-0.9-2.6-1.4-3.9
		c-3.7-9.6-9.2-17.2-15.9-21.7c-0.8-0.6-1.8-0.7-2.8-0.3c-0.9,0.3-1.6,1.1-1.9,2.1c-1.8,6.9-2.7,13.8-3.5,20.5
		c-0.7,5.2-1.3,10.5-2.4,15.9c-4,0-8.3,0.1-12.7,0.3c-2.1-12.2-0.6-25.3,4.5-37.3c0.4-1,0.3-2.1-0.3-2.9s-1.6-1.3-2.7-1.2
		c-3.8,0.3-7.8,1.2-11.9,2.8c-4.9,1.9-9.8,4.6-15.5,8.5c-5-1.8-9.2-5-11.7-8.9c13.5-11.3,34.7-19.3,42.9-17.7c1.5,0.3,3-0.7,3.5-2.2
		c1.4-5,4.3-22.6,7.4-41.3c0.2-1.1,0.4-2.2,0.5-3.3c2.2,3.6,4.5,7,7,10.2c0.6,0.7,1.5,1.2,2.4,1.2c0.1,0,0.3,0,0.4,0
		c1.1-0.1,2-0.9,2.4-1.9l0.1-0.1c2-5,4.1-10,6.8-14.6c-0.7,6.7-1.3,14-2,20.9c-1.2,12.4-2.2,23.2-2.7,27.1c-0.1,0.7,0.1,1.4,0.5,2
		c1.5,2.3,3,4.4,4.5,6.4c3.1,4.3,6,8.3,8.3,13.1C570.7,623.5,571.2,625.4,572.9,631.6z M747.2,615.5c-6.1-5.1-14.1-9.9-22.5-13.3
		c-8.4-3.5-16.3-5.2-20.4-4.4c-1.5,0.3-3-0.7-3.5-2.2c-1.4-5-4.3-22.6-7.4-41.3c-0.2-1.1-0.4-2.2-0.5-3.3c-2.2,3.6-4.5,7-7,10.2
		c-0.6,0.7-1.5,1.2-2.4,1.2c-0.1,0-0.3,0-0.4,0c-1.1-0.1-2-0.9-2.4-1.9l-0.1-0.1c-2-5-4.1-10-6.8-14.6c0.7,6.7,1.3,14,2,20.9
		c1.2,12.4,2.2,23.2,2.7,27.1c0.1,0.7-0.1,1.4-0.5,2c-1.5,2.3-3,4.4-4.5,6.4c-3.1,4.3-6,8.3-8.3,13.1c-3.9,8-4.4,9.9-6,16.1
		c-0.3,1.2-0.6,2.5-1,4c2.7,2.3,7.1,4.4,10.8,6.2c0.4-1.3,0.9-2.6,1.4-3.9c3.7-9.6,9.2-17.2,15.9-21.7c0.8-0.6,1.8-0.7,2.8-0.3
		c0.9,0.3,1.6,1.1,1.9,2.1c1.8,6.9,2.7,13.8,3.5,20.5c0.7,5.2,1.3,10.5,2.4,15.9c4,0,8.3,0.1,12.7,0.3c2.1-12.2,0.6-25.3-4.5-37.3
		c-0.4-1-0.3-2.1,0.3-2.9s1.6-1.3,2.7-1.2c3.8,0.3,7.8,1.2,11.9,2.8c4.9,1.9,9.8,4.6,15.5,8.5C740.5,622.6,744.7,619.4,747.2,615.5z
		 M624.9,227c-1.6-4.7-3.8-7.2-5.9-9.6c-0.5-0.5-0.9-1.1-1.4-1.6c-0.4-0.4-0.9-0.7-1.5-0.7s-1.1,0.3-1.5,0.7
		c-0.5,0.6-0.9,1.1-1.4,1.6c-2.1,2.4-4.4,4.9-5.9,9.6c-0.1,0.3-0.1,0.6-0.1,0.9c1.3,8.5,5.8,15.4,7.3,17.7c0.4,0.6,1,0.9,1.6,0.9
		s1.3-0.3,1.6-0.9c1.5-2.3,6-9.3,7.3-17.7C625.1,227.6,625,227.3,624.9,227z"/>
</g>
</svg>
